<svg xmlns="http://www.w3.org/2000/svg" width="82" height="82" viewBox="0 0 82 82">
  <defs>
    <style>
      .cls-1 {
        fill: #f6f7fb;
      }

      .cls-1, .cls-2 {
        stroke: #0875e2;
      }

      .cls-1, .cls-3 {
        stroke-linecap: round;
        stroke-width: 1.5px;
      }

      .cls-2 {
        fill: #0875e2;
        stroke-width: 0.2px;
        fill-rule: evenodd;
      }

      .cls-3, .cls-6, .cls-8 {
        fill: none;
      }

      .cls-3 {
        stroke: #29398d;
        stroke-linejoin: round;
      }

      .cls-4 {
        fill: #2a3a8d;
      }

      .cls-5 {
        fill: #29398d;
      }

      .cls-7 {
        opacity: 0.002;
      }

      .cls-8 {
        stroke: #e2e2e2;
      }

      .cls-9 {
        stroke: none;
      }
    </style>
  </defs>
  <g id="Group_20364" data-name="Group 20364" transform="translate(-572 -540)">
    <g id="Group_20330" data-name="Group 20330" transform="translate(1.669 1.433)">
      <g id="Group_20329" data-name="Group 20329" transform="translate(581.898 550.909)">
        <g id="Group_20329-2" data-name="Group 20329" transform="translate(0 0)">
          <g id="Ellipse_943" data-name="Ellipse 943" class="cls-1" transform="translate(6.225 6.224)">
            <circle class="cls-9" cx="23.636" cy="23.636" r="23.636"/>
            <circle class="cls-6" cx="23.636" cy="23.636" r="22.886"/>
          </g>
          <path id="Path_18022" data-name="Path 18022" class="cls-2" d="M9.648,6.355l-.008.067A4.734,4.734,0,0,1,7.918,9.4a8.359,8.359,0,0,1-4.345,1.514l-.035,0,6.027,5.171a.985.985,0,0,1,.254.419.849.849,0,0,1-.145.667.94.94,0,0,1-.408.276.834.834,0,0,1-.7-.137l-.026-.02L.995,10.824a.672.672,0,0,1-.07-.074.828.828,0,0,1,.15-1.188,2.049,2.049,0,0,1,1.088-.139,9.356,9.356,0,0,0,4.115-.841,3.246,3.246,0,0,0,1.753-2.2l.006-.026H.79A.79.79,0,0,1,.743,4.776l.048,0H8.032C7.653,3.007,5.718,1.83,3.8,1.608L3.749,1.6H.79A.819.819,0,0,1,0,.857.921.921,0,0,1,.13.372.836.836,0,0,1,.751.018l.039,0H11.451c.076,0,0-.067.306.063a.821.821,0,0,1,.482.682,1.038,1.038,0,0,1-.087.413A.82.82,0,0,1,11.5,1.6l-.046,0h-3.6a5.068,5.068,0,0,1,1.79,3.157l0,.013h1.805s.061,0,.122.011a.807.807,0,0,1,.667.734,1.032,1.032,0,0,1-.087.413.82.82,0,0,1-.656.424l-.046,0Z" transform="translate(24.403 21.684)"/>
          <path id="Path_20055" data-name="Path 20055" class="cls-3" d="M-8426.09,15490.07l-.787-4.712h5.153" transform="translate(8471.315 -15481.065)"/>
          <g id="Ellipse_1001" data-name="Ellipse 1001">
            <path id="Path_20057" data-name="Path 20057" class="cls-4" d="M12.242,54.336c-.2,0-.3-.1-.492-.2A25.664,25.664,0,0,1,8.7,51.48.766.766,0,1,1,9.78,50.4a35.292,35.292,0,0,0,2.856,2.561.772.772,0,0,1,.1,1.083C12.734,54.238,12.439,54.336,12.242,54.336Z" transform="translate(-1.113 -1.805)"/>
            <path id="Path_20058" data-name="Path 20058" class="cls-4" d="M6.065,48.432A24.266,24.266,0,0,1,3.9,45.083a.683.683,0,0,1,.3-.985.683.683,0,0,1,.985.3,29.786,29.786,0,0,0,2.068,3.25.883.883,0,0,1-.1,1.083C6.853,48.924,6.518,49.044,6.065,48.432Z" transform="translate(-0.058 -0.726)"/>
            <path id="Path_20059" data-name="Path 20059" class="cls-4" d="M2.771,41.719a.741.741,0,0,1-.689-.492A28.626,28.626,0,0,1,.9,37.386a.707.707,0,1,1,1.379-.3A22.505,22.505,0,0,0,3.46,40.734a.719.719,0,0,1-.394.985Z" transform="translate(-0.013 -0.612)"/>
            <path id="Path_20060" data-name="Path 20060" class="cls-4" d="M.886,34.016A.673.673,0,0,1,.2,33.327c-.1-.985-.2-2.068-.2-3.053v-.985A.656.656,0,0,1,.788,28.6a.761.761,0,0,1,.689.788v.886c0,.985.1,1.97.2,2.955a.927.927,0,0,1-.788.788Z" transform="translate(0 -0.493)"/>
            <path id="Path_20061" data-name="Path 20061" class="cls-4" d="M1.189,26.018h-.1A.767.767,0,0,1,.5,25.131a19.226,19.226,0,0,1,.985-3.939.7.7,0,0,1,.886-.492.7.7,0,0,1,.492.886,23.038,23.038,0,0,0-.886,3.742C1.78,25.722,1.485,26.018,1.189,26.018Z" transform="translate(-0.007 -0.373)"/>
            <path id="Path_20062" data-name="Path 20062" class="cls-4" d="M3.489,18.424a.362.362,0,0,1-.3-.1.807.807,0,0,1-.394-.985A31.868,31.868,0,0,1,4.769,13.8a.764.764,0,0,1,.985-.2.764.764,0,0,1,.2.985A36.621,36.621,0,0,0,4.08,17.932.552.552,0,0,1,3.489,18.424Z" transform="translate(-0.042 -0.264)"/>
            <path id="Path_20063" data-name="Path 20063" class="cls-4" d="M7.888,11.734c-.2,0-.3-.1-.492-.2a.772.772,0,0,1-.1-1.083A39.07,39.07,0,0,1,10.153,7.6a.769.769,0,1,1,.985,1.182,23.312,23.312,0,0,0-2.659,2.758A1.4,1.4,0,0,1,7.888,11.734Z" transform="translate(-0.108 -0.172)"/>
            <path id="Path_20064" data-name="Path 20064" class="cls-5" d="M48.738,7.942c-.2,0-.3-.1-.492-.2a22.394,22.394,0,0,0-3.152-2.167.727.727,0,0,1,.689-1.28,20.449,20.449,0,0,1,3.348,2.364.772.772,0,0,1,.1,1.083A.752.752,0,0,1,48.738,7.942Z" transform="translate(-0.677 -0.123)"/>
            <path id="Path_20065" data-name="Path 20065" class="cls-4" d="M13.789,6.449a.7.7,0,0,1-.591-.3.764.764,0,0,1,.2-.985A23.935,23.935,0,0,1,16.842,3.2a.766.766,0,0,1,.985.3.766.766,0,0,1-.3.985A36.62,36.62,0,0,0,14.183,6.35C14.085,6.35,13.986,6.449,13.789,6.449Z" transform="translate(-0.198 -0.107)"/>
            <path id="Path_20066" data-name="Path 20066" class="cls-4" d="M41.831,3.857a.362.362,0,0,1-.3-.1c-1.182-.492-2.364-.886-3.644-1.28a.7.7,0,0,1-.492-.886.7.7,0,0,1,.886-.492,29.974,29.974,0,0,1,3.841,1.379.719.719,0,0,1,.394.985A.829.829,0,0,1,41.831,3.857Z" transform="translate(-0.566 -0.076)"/>
            <path id="Path_20067" data-name="Path 20067" class="cls-4" d="M20.989,2.963a.741.741,0,0,1-.689-.492.7.7,0,0,1,.492-.886A25.605,25.605,0,0,1,24.731.6a.767.767,0,0,1,.886.591.933.933,0,0,1-.689.788,26.24,26.24,0,0,0-3.742.985Z" transform="translate(-0.307 -0.069)"/>
            <path id="Path_20068" data-name="Path 20068" class="cls-4" d="M34.106,1.774h-.1a30.473,30.473,0,0,0-5.22-.2A.761.761,0,0,1,28,.887.761.761,0,0,1,28.689.1a33.223,33.223,0,0,1,5.417.2.777.777,0,0,1,.788.788A.836.836,0,0,1,34.106,1.774Z" transform="translate(-0.424 -0.061)"/>
          </g>
        </g>
        <path id="Path_20056" data-name="Path 20056" class="cls-4" d="M47.556,20.8A29.807,29.807,0,0,0,35.569,1.288,12.908,12.908,0,0,0,34.083.3l-.4-.3-.892,1.387.4.3A28.348,28.348,0,0,1,41.81,40.817,28.055,28.055,0,0,1,23.978,53.2a27.806,27.806,0,0,1-21.3-3.864,14.493,14.493,0,0,1-1.288-.892.49.49,0,0,0-.42-.067,1.37,1.37,0,0,0-.452.389,1.445,1.445,0,0,0-.324.569.461.461,0,0,0,.206.4,29.711,29.711,0,0,0,17.535,5.746,25.682,25.682,0,0,0,4.755-.4A29.807,29.807,0,0,0,42.206,43.1,29.314,29.314,0,0,0,47.556,20.8Z" transform="translate(11.533 3.939)"/>
      </g>
      <rect id="Rectangle_4642" data-name="Rectangle 4642" class="cls-6" width="71" height="71" transform="translate(576.331 544.567)"/>
    </g>
    <g id="Group_20352" data-name="Group 20352" class="cls-7" transform="translate(-60 241)">
      <g id="Group_14723" data-name="Group 14723" transform="translate(632 299)">
        <g id="Rectangle_3860" data-name="Rectangle 3860" class="cls-8">
          <rect class="cls-9" width="82" height="82"/>
          <rect class="cls-6" x="0.5" y="0.5" width="81" height="81"/>
        </g>
      </g>
    </g>
  </g>
</svg>
